<mxfile host="app.diagrams.net" agent="Mozilla/5.0 (Windows NT 10.0; Win64; x64) AppleWebKit/537.36 (KHTML, like Gecko) Chrome/137.0.0.0 Safari/537.36" version="26.2.12">
  <diagram name="Página-1" id="BCixXZE8MxadTjbzVwWd">
    <mxGraphModel dx="874" dy="483" grid="1" gridSize="10" guides="1" tooltips="1" connect="1" arrows="1" fold="1" page="1" pageScale="1" pageWidth="827" pageHeight="1169" math="0" shadow="0">
      <root>
        <mxCell id="0" />
        <mxCell id="1" parent="0" />
        <mxCell id="9qz5yXuFB5HpX5Q0CdJs-1" value="Docente" style="shape=umlActor;verticalLabelPosition=bottom;verticalAlign=top;html=1;outlineConnect=0;" vertex="1" parent="1">
          <mxGeometry x="130" y="160" width="30" height="60" as="geometry" />
        </mxCell>
        <mxCell id="9qz5yXuFB5HpX5Q0CdJs-2" value="Coordenador Pedagógico" style="shape=umlActor;verticalLabelPosition=bottom;verticalAlign=top;html=1;outlineConnect=0;" vertex="1" parent="1">
          <mxGeometry x="130" y="440" width="30" height="60" as="geometry" />
        </mxCell>
        <mxCell id="9qz5yXuFB5HpX5Q0CdJs-3" value="Cadastrar Aulas" style="ellipse;whiteSpace=wrap;html=1;" vertex="1" parent="1">
          <mxGeometry x="289" y="110" width="106" height="60" as="geometry" />
        </mxCell>
        <mxCell id="9qz5yXuFB5HpX5Q0CdJs-4" value="Listar e Buscar Aulas" style="ellipse;whiteSpace=wrap;html=1;" vertex="1" parent="1">
          <mxGeometry x="289" y="180" width="106" height="60" as="geometry" />
        </mxCell>
        <mxCell id="9qz5yXuFB5HpX5Q0CdJs-5" value="Agrupar aulas (carrinho)" style="ellipse;whiteSpace=wrap;html=1;" vertex="1" parent="1">
          <mxGeometry x="294" y="50" width="106" height="60" as="geometry" />
        </mxCell>
        <mxCell id="9qz5yXuFB5HpX5Q0CdJs-6" value="Elaborar planos de aula" style="ellipse;whiteSpace=wrap;html=1;" vertex="1" parent="1">
          <mxGeometry x="480" y="50" width="160" height="60" as="geometry" />
        </mxCell>
        <mxCell id="9qz5yXuFB5HpX5Q0CdJs-7" value="Autenticação" style="ellipse;whiteSpace=wrap;html=1;" vertex="1" parent="1">
          <mxGeometry x="530" y="250" width="120" height="60" as="geometry" />
        </mxCell>
        <mxCell id="9qz5yXuFB5HpX5Q0CdJs-8" value="&amp;lt;&amp;lt;include&amp;gt;&amp;gt;" style="html=1;verticalAlign=bottom;labelBackgroundColor=none;endArrow=open;endFill=0;dashed=1;rounded=0;exitX=1;exitY=0.5;exitDx=0;exitDy=0;entryX=0;entryY=0;entryDx=0;entryDy=0;" edge="1" parent="1" source="9qz5yXuFB5HpX5Q0CdJs-3" target="9qz5yXuFB5HpX5Q0CdJs-7">
          <mxGeometry width="160" relative="1" as="geometry">
            <mxPoint x="420" y="70" as="sourcePoint" />
            <mxPoint x="580" y="70" as="targetPoint" />
          </mxGeometry>
        </mxCell>
        <mxCell id="9qz5yXuFB5HpX5Q0CdJs-9" value="&amp;lt;&amp;lt;include&amp;gt;&amp;gt;" style="html=1;verticalAlign=bottom;labelBackgroundColor=none;endArrow=open;endFill=0;dashed=1;rounded=0;exitX=1;exitY=0.5;exitDx=0;exitDy=0;entryX=0;entryY=0.5;entryDx=0;entryDy=0;" edge="1" parent="1" source="9qz5yXuFB5HpX5Q0CdJs-4" target="9qz5yXuFB5HpX5Q0CdJs-7">
          <mxGeometry width="160" relative="1" as="geometry">
            <mxPoint x="414" y="150" as="sourcePoint" />
            <mxPoint x="512" y="189" as="targetPoint" />
          </mxGeometry>
        </mxCell>
        <mxCell id="9qz5yXuFB5HpX5Q0CdJs-10" value="&amp;lt;&amp;lt;include&amp;gt;&amp;gt;" style="html=1;verticalAlign=bottom;labelBackgroundColor=none;endArrow=open;endFill=0;dashed=1;rounded=0;exitX=1;exitY=0.5;exitDx=0;exitDy=0;entryX=0;entryY=0;entryDx=0;entryDy=0;" edge="1" parent="1" source="9qz5yXuFB5HpX5Q0CdJs-5" target="9qz5yXuFB5HpX5Q0CdJs-7">
          <mxGeometry width="160" relative="1" as="geometry">
            <mxPoint x="414" y="195" as="sourcePoint" />
            <mxPoint x="494" y="185" as="targetPoint" />
          </mxGeometry>
        </mxCell>
        <mxCell id="9qz5yXuFB5HpX5Q0CdJs-11" value="&amp;lt;&amp;lt;extend&amp;gt;&amp;gt;" style="html=1;verticalAlign=bottom;labelBackgroundColor=none;endArrow=open;endFill=0;dashed=1;rounded=0;entryX=1;entryY=0.5;entryDx=0;entryDy=0;exitX=0;exitY=0.5;exitDx=0;exitDy=0;" edge="1" parent="1" source="9qz5yXuFB5HpX5Q0CdJs-6" target="9qz5yXuFB5HpX5Q0CdJs-5">
          <mxGeometry width="160" relative="1" as="geometry">
            <mxPoint x="340" y="310" as="sourcePoint" />
            <mxPoint x="500" y="310" as="targetPoint" />
          </mxGeometry>
        </mxCell>
        <mxCell id="9qz5yXuFB5HpX5Q0CdJs-12" value="Listar planos de aula criados" style="ellipse;whiteSpace=wrap;html=1;" vertex="1" parent="1">
          <mxGeometry x="294" y="260" width="106" height="60" as="geometry" />
        </mxCell>
        <mxCell id="9qz5yXuFB5HpX5Q0CdJs-13" value="&amp;lt;&amp;lt;include&amp;gt;&amp;gt;" style="html=1;verticalAlign=bottom;labelBackgroundColor=none;endArrow=open;endFill=0;dashed=1;rounded=0;exitX=1;exitY=0.5;exitDx=0;exitDy=0;entryX=0;entryY=1;entryDx=0;entryDy=0;" edge="1" parent="1" source="9qz5yXuFB5HpX5Q0CdJs-12" target="9qz5yXuFB5HpX5Q0CdJs-7">
          <mxGeometry width="160" relative="1" as="geometry">
            <mxPoint x="414" y="289" as="sourcePoint" />
            <mxPoint x="512" y="230" as="targetPoint" />
          </mxGeometry>
        </mxCell>
        <mxCell id="9qz5yXuFB5HpX5Q0CdJs-14" value="" style="endArrow=none;html=1;rounded=0;entryX=0;entryY=0.5;entryDx=0;entryDy=0;" edge="1" parent="1" target="9qz5yXuFB5HpX5Q0CdJs-3">
          <mxGeometry width="50" height="50" relative="1" as="geometry">
            <mxPoint x="160" y="180" as="sourcePoint" />
            <mxPoint x="240" y="80" as="targetPoint" />
          </mxGeometry>
        </mxCell>
        <mxCell id="9qz5yXuFB5HpX5Q0CdJs-15" value="" style="endArrow=none;html=1;rounded=0;entryX=0;entryY=0.5;entryDx=0;entryDy=0;" edge="1" parent="1" target="9qz5yXuFB5HpX5Q0CdJs-4">
          <mxGeometry width="50" height="50" relative="1" as="geometry">
            <mxPoint x="160" y="180" as="sourcePoint" />
            <mxPoint x="304" y="80" as="targetPoint" />
          </mxGeometry>
        </mxCell>
        <mxCell id="9qz5yXuFB5HpX5Q0CdJs-16" value="" style="endArrow=none;html=1;rounded=0;entryX=0;entryY=0.5;entryDx=0;entryDy=0;exitX=1;exitY=0.3333333333333333;exitDx=0;exitDy=0;exitPerimeter=0;" edge="1" parent="1" source="9qz5yXuFB5HpX5Q0CdJs-1" target="9qz5yXuFB5HpX5Q0CdJs-5">
          <mxGeometry width="50" height="50" relative="1" as="geometry">
            <mxPoint x="180" y="200" as="sourcePoint" />
            <mxPoint x="314" y="90" as="targetPoint" />
          </mxGeometry>
        </mxCell>
        <mxCell id="9qz5yXuFB5HpX5Q0CdJs-17" value="" style="endArrow=none;html=1;rounded=0;entryX=0;entryY=0.5;entryDx=0;entryDy=0;exitX=1;exitY=0.3333333333333333;exitDx=0;exitDy=0;exitPerimeter=0;" edge="1" parent="1" source="9qz5yXuFB5HpX5Q0CdJs-1" target="9qz5yXuFB5HpX5Q0CdJs-12">
          <mxGeometry width="50" height="50" relative="1" as="geometry">
            <mxPoint x="170" y="190" as="sourcePoint" />
            <mxPoint x="304" y="220" as="targetPoint" />
          </mxGeometry>
        </mxCell>
        <mxCell id="9qz5yXuFB5HpX5Q0CdJs-18" value="" style="endArrow=classic;html=1;rounded=0;exitX=0.5;exitY=0;exitDx=0;exitDy=0;exitPerimeter=0;" edge="1" parent="1" source="9qz5yXuFB5HpX5Q0CdJs-2" target="9qz5yXuFB5HpX5Q0CdJs-1">
          <mxGeometry width="50" height="50" relative="1" as="geometry">
            <mxPoint x="110" y="370" as="sourcePoint" />
            <mxPoint x="150" y="250" as="targetPoint" />
          </mxGeometry>
        </mxCell>
        <mxCell id="9qz5yXuFB5HpX5Q0CdJs-19" value="Gerenciar Usuários" style="ellipse;whiteSpace=wrap;html=1;" vertex="1" parent="1">
          <mxGeometry x="299" y="400" width="96" height="60" as="geometry" />
        </mxCell>
        <mxCell id="9qz5yXuFB5HpX5Q0CdJs-20" value="" style="endArrow=none;html=1;rounded=0;entryX=0;entryY=0.5;entryDx=0;entryDy=0;exitX=1;exitY=0.3333333333333333;exitDx=0;exitDy=0;exitPerimeter=0;" edge="1" parent="1" source="9qz5yXuFB5HpX5Q0CdJs-2" target="9qz5yXuFB5HpX5Q0CdJs-19">
          <mxGeometry width="50" height="50" relative="1" as="geometry">
            <mxPoint x="200" y="430" as="sourcePoint" />
            <mxPoint x="334" y="540" as="targetPoint" />
          </mxGeometry>
        </mxCell>
        <mxCell id="9qz5yXuFB5HpX5Q0CdJs-21" value="&amp;lt;&amp;lt;include&amp;gt;&amp;gt;" style="html=1;verticalAlign=bottom;labelBackgroundColor=none;endArrow=open;endFill=0;dashed=1;rounded=0;exitX=1;exitY=0.5;exitDx=0;exitDy=0;entryX=0;entryY=1;entryDx=0;entryDy=0;" edge="1" parent="1" source="9qz5yXuFB5HpX5Q0CdJs-19" target="9qz5yXuFB5HpX5Q0CdJs-7">
          <mxGeometry width="160" relative="1" as="geometry">
            <mxPoint x="400" y="419" as="sourcePoint" />
            <mxPoint x="498" y="360" as="targetPoint" />
          </mxGeometry>
        </mxCell>
      </root>
    </mxGraphModel>
  </diagram>
</mxfile>
